# xmcd
#
# Track frame offsets:
# 150
# 33780
# 56955
# 78890
# 110550
# 154413
# 178293
# 214428
#
# Disc length: 3427 seconds
#
#
# Revision: 1
# Processed by: cddbd v1.5.1PL0 Copyright (c) Steve Scherf et al.
# Submitted via: FreeRIP 2.941 
#
DISCID=710d6108
DTITLE=Sakumoto Trio - Fancy Jazz Piano
DYEAR=1983
DGENRE=Jazz
TTITLE0=Wave
TTITLE1=Hey Paula
TTITLE2=Cute
TTITLE3=Un Buco Nella Sabbia
TTITLE4=Ai No Suichuka
TTITLE5=Bewer No. 90
TTITLE6=Onna Hitori
TTITLE7=The Shadow of Your Smile
EXTD=
EXTT0=
EXTT1=
EXTT2=
EXTT3=
EXTT4=
EXTT5=
EXTT6=
EXTT7=
PLAYORDER=
